<?xml version="1.0" encoding="UTF-8"?><svg id="a" xmlns="http://www.w3.org/2000/svg" viewBox="0 0 74.42 21.81"><defs><style>.b{fill:#f8b54b;}.c{fill:#040000;}.d{fill:#2c60ad;}</style></defs><path class="c" d="M15.94,21.87h-4.92l-1.02-8.02-1.54,8.02H3.6L.27,8.49H5.15l.76,4.3c.09,.54,.18,1.13,.27,1.75,.09,.62,.17,1.29,.24,2.02,.07-.75,.15-1.47,.27-2.16,.11-.69,.24-1.36,.38-2l.88-3.9h4.24l.72,4.31c.09,.55,.17,1.14,.25,1.76s.14,1.29,.21,1.99c.13-.95,.26-1.81,.4-2.59,.13-.78,.27-1.5,.41-2.15l.72-3.32h4.97l-3.9,13.39Z"/><rect class="c" x="20.98" y="8.49" width="4.98" height="13.39"/><rect class="c" x="28.25" y="8.49" width="4.98" height="13.39"/><path class="c" d="M40.51,21.87h-4.98V.98h4.98V21.87Z"/><path class="c" d="M47.77,21.87h-4.98V.98h4.98V21.87Z"/><path class="c" d="M50.07,8.49h4.98v7.54c0,.72,.07,1.24,.21,1.57,.15,.27,.43,.41,.84,.41s.68-.14,.82-.41c.15-.27,.22-.8,.22-1.57v-7.54h4.98v8.05c0,.53-.04,1.02-.13,1.45-.09,.43-.22,.83-.41,1.18s-.43,.67-.72,.96c-.29,.29-.64,.56-1.05,.8-1.09,.63-2.33,.95-3.71,.95s-2.63-.32-3.71-.95c-.41-.24-.77-.51-1.06-.79-.29-.29-.53-.61-.72-.96s-.32-.75-.41-1.18c-.09-.43-.13-.92-.13-1.45V8.49Z"/><path class="c" d="M63.91,20.49l1.81-3.73c.89,.93,1.72,1.4,2.49,1.4,.64,0,.97-.22,.97-.65,0-.37-.43-.71-1.3-1-2.34-.78-3.5-2.01-3.5-3.7,0-1.24,.52-2.27,1.57-3.08,1.05-.82,2.37-1.23,3.94-1.23,1.29,0,2.62,.38,3.99,1.14l-1.7,3.75c-.83-.78-1.52-1.18-2.04-1.18s-.78,.2-.78,.59c0,.42,.5,.82,1.51,1.19,1.26,.45,2.12,.93,2.57,1.44,.48,.51,.72,1.21,.72,2.1,0,1.28-.51,2.33-1.53,3.14-1.02,.81-2.33,1.22-3.93,1.22-.75,0-1.5-.1-2.24-.29-.35-.09-.73-.23-1.14-.42-.41-.19-.88-.41-1.4-.68Z"/><path class="d" d="M20.58,4.27c0-.78,.28-1.45,.85-2.01,.57-.57,1.24-.85,2.03-.85s1.49,.28,2.05,.85c.57,.55,.85,1.23,.85,2.03s-.28,1.49-.85,2.05c-.55,.57-1.23,.85-2.03,.85s-1.49-.28-2.05-.85c-.57-.57-.85-1.26-.85-2.07Z"/><path class="b" d="M27.85,4.27c0-.78,.28-1.45,.85-2.01,.57-.57,1.24-.85,2.03-.85s1.49,.28,2.05,.85c.57,.55,.85,1.23,.85,2.03s-.28,1.49-.85,2.05c-.55,.57-1.23,.85-2.03,.85s-1.49-.28-2.05-.85c-.57-.57-.85-1.26-.85-2.07Z"/></svg>